<?xml version="1.0"?>
<svg xmlns="http://www.w3.org/2000/svg" id="Layer_1" enable-background="new 0 0 511.899 511.899" height="512px" viewBox="0 0 511.899 511.899" width="512px" class=""><g transform="matrix(1 -2.44929e-16 2.44929e-16 1 -2.84217e-14 1.13687e-13)"><path d="m14.999 485.848c-4.201 0-8.258-1.767-11.128-4.943-3.463-3.833-4.711-9.178-3.303-14.147l19.319-68.157c-18.177-34.676-22.602-74.327-12.408-112.371 10.756-40.144 36.502-73.697 72.495-94.477 35.992-20.781 77.923-26.301 118.067-15.544 82.871 22.205 132.227 107.691 110.021 190.562-10.757 40.144-36.503 73.697-72.496 94.477s-77.924 26.3-118.067 15.543c-5.876-1.574-11.705-3.508-17.382-5.767l-82.504 14.594c-.871.155-1.745.23-2.614.23z" fill="#00e7f0" data-original="#00E7F0" class="" data-old_color="#00e7f0" style="fill:#30DF0C"/><path d="m448.634 438.05c-2.16 0-4.326-.466-6.346-1.409l-92.285-43.094c-7.477.913-15.039 1.374-22.54 1.374-101.698 0-184.436-82.737-184.436-184.436s82.738-184.435 184.436-184.435 184.436 82.737 184.436 184.436c0 47.096-17.535 91.5-49.513 125.75l1.247 86.599c.075 5.165-2.514 10.005-6.852 12.811-2.465 1.594-5.3 2.404-8.147 2.404z" fill="#fff36c" data-original="#FFF36C" class="" data-old_color="#fff36c" style="fill:#7FCEED"/><path d="m511.899 210.486c0-101.698-82.737-184.436-184.436-184.436v368.871c7.501 0 15.063-.461 22.54-1.374l92.285 43.094c2.02.943 4.186 1.409 6.346 1.409 2.847 0 5.682-.81 8.147-2.405 4.338-2.806 6.927-7.646 6.852-12.811l-1.247-86.599c31.978-34.249 49.513-78.653 49.513-125.749z" fill="#ffde46" data-original="#FFDE46" class="" data-old_color="#ffde46" style="fill:#63CDF7"/><path d="m327.464 297.05c-2.59 0-5.18-.67-7.5-2.01-21.657-12.504-84.5-62.615-84.5-104.962 0-30.208 24.576-54.783 54.783-54.783 14.025 0 27.266 5.459 37.217 14.648 9.95-9.189 23.19-14.648 37.217-14.648 30.207 0 54.782 24.576 54.782 54.783 0 18.091-12.342 39.993-36.681 65.097-17.534 18.084-37.724 34.037-47.818 39.865-2.321 1.341-4.91 2.01-7.5 2.01z" fill="#ff3f5c" data-original="#FF3F5C" class="" data-old_color="#ff3f5c" style="fill:#DE3F75"/><path d="m364.681 135.296c-14.026 0-27.267 5.459-37.217 14.648v147.106c2.59 0 5.18-.67 7.5-2.01 10.095-5.828 30.284-21.781 47.818-39.865 24.339-25.104 36.681-47.006 36.681-65.097 0-30.207-24.575-54.782-54.782-54.782z" fill="#bf065a" data-original="#BF065A" class="active-path" style="fill:#D51A1A" data-old_color="#bf065a"/></g> </svg>
