<svg height="512" viewBox="0 0 192 192" width="512" xmlns="http://www.w3.org/2000/svg" xmlns:xlink="http://www.w3.org/1999/xlink"><linearGradient id="New_Gradient_Swatch_2" gradientUnits="userSpaceOnUse" x1="67.56" x2="124.44" y1="114.977" y2="58.098"><stop offset="0" stop-color="#ff85a6"/><stop offset="1" stop-color="#e8d9f1"/></linearGradient><path d="m96 16c-52.935 0-96 35.888-96 80 0 20.353 8.954 39.416 25.337 54.2l-9.029 31.6a8.07 8.07 0 0 0 10.843 9.551l42.783-18.335a114.382 114.382 0 0 0 26.066 2.984c52.935 0 96-35.888 96-80s-43.065-80-96-80z" fill="#ffe7ed"/><path d="m127.713 62.6c-8.371-4.48-19.563-2.82-31.713 4.65-12.15-7.47-23.342-9.129-31.713-4.65-7.924 4.241-12.287 13.261-12.287 25.4 0 24.4 40.636 42.876 42.365 43.651a4 4 0 0 0 3.27 0c1.729-.775 42.365-19.251 42.365-43.651 0-12.139-4.363-21.159-12.287-25.4z" fill="url(#New_Gradient_Swatch_2)"/><path d="m112 168c-53.019 0-96-36.265-96-81 0-23.818 12.185-45.233 31.58-60.054-28.44 13.902-47.58 39.654-47.58 69.054 0 20.353 8.954 39.416 25.337 54.2l-9.029 31.6a8.07 8.07 0 0 0 10.843 9.551l42.783-18.335a114.382 114.382 0 0 0 26.066 2.984 108.6 108.6 0 0 0 57.344-15.879 110.56 110.56 0 0 1 -41.344 7.879z" fill="#ffcedb"/></svg>